<svg xmlns="http://www.w3.org/2000/svg" viewBox="0 0 46.1 38.1"><path d="M14.9 37.1c-.1 0-.3 0-.4-.1-.4-.2-.6-.5-.6-.9v-5.8H6.5c-3 0-5.4-2.4-5.4-5.4V6.5c0-3 2.4-5.4 5.4-5.4h33.1c3 0 5.4 2.4 5.4 5.4v18.3c0 3-2.4 5.4-5.4 5.4h-17l-7 6.5c-.2.3-.5.4-.7.4zm-8.4-34c-1.9 0-3.4 1.5-3.4 3.4v18.3c0 1.9 1.5 3.4 3.4 3.4h8.3c.6 0 1 .4 1 1v4.5l5.6-5.2c.2-.2.4-.3.7-.3h17.5c1.9 0 3.4-1.5 3.4-3.4V6.5c0-1.9-1.5-3.4-3.4-3.4H6.5z"/><path d="M32.3 19.4c-.1.2-.3.6-.5.9-.4.7-.9 1.3-1.5 1.9-1.8 1.9-4.1 2.8-6.8 2.8h-.4c-2.7 0-5.1-1-7-2.8-.6-.5-1.2-1.2-1.7-1.9-.2-.3-.4-.7-.5-.9-.2-.5 0-1 .4-1.2.2-.2.4-.2.7-.1.2.1.4.2.5.5.1.1.2.4.4.7.4.6.9 1.1 1.4 1.6 1.6 1.5 3.6 2.3 5.9 2.3 2.3.1 4.3-.7 5.9-2.3.5-.5.9-1 1.2-1.6.2-.3.3-.6.4-.7.1-.2.3-.4.5-.5.2-.1.5-.1.7 0 .4.2.6.8.4 1.3zM17.2 13c-1.9.2-2.5-2-1.9-3.4.1-.3.8-1.5 1.9-1.5 1.2 0 1.7.7 1.7.8.9 1.3.5 4-1.7 4.1M31.2 9.6c-.1-.3-.8-1.5-1.9-1.5-1.2 0-1.7.7-1.7.8-.9 1.4-.4 4.1 1.7 4.2 1.9.1 2.5-2.1 1.9-3.5z"/></svg>