<svg width="24" height="24" viewBox="0 0 24 24" xmlns="http://www.w3.org/2000/svg"
    xmlns:xlink="http://www.w3.org/1999/xlink" version="1.1">
    <path transform="matrix(1,0,0,-1,5.499294,18.809586)"
        d="M12.228967 12.523379C11.191059 13.569003 9.501199 13.572038 8.459543 12.530148L1.299348 5.368331C1.209241 5.278204 1.143587 5.166602 1.108582 5.04406L.028863 1.264185C-.045856 1.00261 .026924 .721085 .219052 .528494 .41118 .335904 .69253 .262449 .954284 .336539L4.726205 1.404198C4.849475 1.43909 4.961751 1.504976 5.05233 1.595576L12.222226 8.767094C13.258513 9.803616 13.261524 11.483145 12.228967 12.523379ZM9.520324 11.469607C9.974676 11.924063 10.711666 11.92274 11.164386 11.466655 11.614907 11.012784 11.613591 10.279881 11.161446 9.827634L11.111817 9.777994 9.470455 11.419727 9.520324 11.469607ZM8.409915 10.358948 2.497519 4.445214 1.840871 2.146423 4.129685 2.794283 10.051277 8.717215 8.409915 10.358948Z"
        fill="#020c1c" fill-opacity=".68" fill-rule="evenodd" />
    <path transform="matrix(1,0,0,-1,2.5,22.997895)"
        d="M0 20.497895V21.247895C-.414214 21.247895-.75 20.912108-.75 20.497895H0ZM19 20.497895H19.75C19.75 20.912108 19.414214 21.247895 19 21.247895V20.497895ZM19 1.499998V.749998C19.414214 .749998 19.75 1.085785 19.75 1.499998H19ZM0 1.499998H-.75C-.75 1.085785-.414214 .749998 0 .749998V1.499998ZM-.75 18.914736V18.164736H.75V18.914736H-.75ZM.75 15.748421V16.49842H-.75V15.748421H.75ZM-.75 12.582104V11.832105H.75V12.582104H-.75ZM.75 9.415789V10.165789H-.75V9.415789H.75ZM-.75 6.249472V5.499472H.75V6.249472H-.75ZM.75 3.083157V3.833157H-.75V3.083157H.75ZM1.583333 .749998H2.333333V2.249998H1.583333V.749998ZM4.75 2.249998H4V.749998H4.75V2.249998ZM7.916667 .749998H8.666667V2.249998H7.916667V.749998ZM11.083334 2.249998H10.333334V.749998H11.083334V2.249998ZM14.250001 .749998H15.000001V2.249998H14.250001V.749998ZM17.416668 2.249998H16.666668V.749998H17.416668V2.249998ZM19.75 3.083157V3.833157H18.25V3.083157H19.75ZM18.25 6.249472V5.499472H19.75V6.249472H18.25ZM19.75 9.415788V10.165788H18.25V9.415788H19.75ZM18.25 12.582104V11.832104H19.75V12.582104H18.25ZM19.75 15.748421V16.49842H18.25V15.748421H19.75ZM18.25 18.914736V18.164736H19.75V18.914736H18.25ZM17.416666 21.247895H16.666666V19.747895H17.416666V21.247895ZM14.25 19.747895H15V21.247895H14.25V19.747895ZM11.083333 21.247895H10.333333V19.747895H11.083333V21.247895ZM7.916666 19.747895H8.666666V21.247895H7.916666V19.747895ZM4.749999 21.247895H3.999999V19.747895H4.749999V21.247895ZM1.583332 19.747895H2.333332V21.247895H1.583332V19.747895ZM-.75 20.497895V18.914736H.75V20.497895H-.75ZM-.75 15.748421V12.582104H.75V15.748421H-.75ZM-.75 9.415789V6.249472H.75V9.415789H-.75ZM-.75 3.083157V1.499998H.75V3.083157H-.75ZM0 .749998H1.583333V2.249998H0V.749998ZM4.75 .749998H7.916667V2.249998H4.75V.749998ZM11.083334 .749998H14.250001V2.249998H11.083334V.749998ZM17.416668 .749998H19V2.249998H17.416668V.749998ZM19.75 1.499998V3.083157H18.25V1.499998H19.75ZM19.75 6.249472V9.415788H18.25V6.249472H19.75ZM19.75 12.582104V15.748421H18.25V12.582104H19.75ZM19.75 18.914736V20.497895H18.25V18.914736H19.75ZM19 21.247895H17.416666V19.747895H19V21.247895ZM14.25 21.247895H11.083333V19.747895H14.25V21.247895ZM7.916666 21.247895H4.749999V19.747895H7.916666V21.247895ZM1.583332 21.247895H0V19.747895H1.583332V21.247895Z"
        fill="#020c1c" fill-opacity=".68" />
</svg>