<svg width="1em" height="1em" viewBox="0 0 20 20" fill="none" xmlns="http://www.w3.org/2000/svg">
<rect x="0.75" y="0.75" width="18.5" height="18.4978" rx="3.25" fill="#F9FCCC"/>
<rect x="0.75" y="0.75" width="18.5" height="18.4978" rx="3.25" stroke="#23262A" stroke-width="1.5"/>
<path fill-rule="evenodd" clip-rule="evenodd" d="M15.6913 4.27163C14.6551 3.22793 12.968 3.2249 11.9281 4.26487L4.78387 11.4091C4.69374 11.4992 4.62807 11.6108 4.59306 11.7334L3.51575 15.5039C3.44102 15.7655 3.51378 16.047 3.70589 16.2396C3.89801 16.4322 4.17936 16.5057 4.44112 16.4316L8.20461 15.3666C8.32787 15.3317 8.44014 15.2659 8.53072 15.1753L15.6846 8.0214C16.7193 6.98669 16.7223 5.31004 15.6913 4.27163ZM12.9887 5.32553C13.4414 4.87284 14.1758 4.87415 14.6269 5.32847C15.0757 5.78049 15.0743 6.51033 14.6239 6.96074L14.5755 7.00913L12.9403 5.37392L12.9887 5.32553ZM11.8797 6.43458L5.98195 12.3323L5.32781 14.6218L7.6082 13.9765L13.5149 8.06979L11.8797 6.43458Z" fill="#23262A"/>
</svg>
