<svg width="1em" height="1em" viewBox="0 0 20 20" fill="none" xmlns="http://www.w3.org/2000/svg">
<rect x="0.75" y="0.75" width="18.5" height="18.4978" rx="3.25" stroke="#23262A" stroke-width="1.5"/>
<path fill-rule="evenodd" clip-rule="evenodd" d="M15.691 4.27158C14.6548 3.2279 12.9678 3.22487 11.9278 4.26482L4.78381 11.4089C4.69368 11.499 4.62801 11.6106 4.59299 11.7331L3.51571 15.5036C3.44098 15.7652 3.51374 16.0467 3.70586 16.2393C3.89797 16.4319 4.17932 16.5054 4.44108 16.4313L8.20449 15.3663C8.32774 15.3315 8.44001 15.2656 8.53059 15.175L15.6843 8.02129C16.719 6.9866 16.722 5.30997 15.691 4.27158ZM12.9885 5.32548C13.4412 4.8728 14.1755 4.87412 14.6266 5.32842C15.0753 5.78042 15.074 6.51024 14.6236 6.96063L14.5753 7.009L12.9401 5.37386L12.9885 5.32548ZM11.8795 6.43452L5.98189 12.3321L5.32777 14.6215L7.60807 13.9762L13.5146 8.06966L11.8795 6.43452Z" fill="#23262A"/>
</svg>
