<?xml version="1.0" encoding="UTF-8"?>
<svg width="17px" height="17px" viewBox="0 0 17 17" version="1.1" xmlns="http://www.w3.org/2000/svg" xmlns:xlink="http://www.w3.org/1999/xlink">
    <!-- Generator: Sketch 59.1 (86144) - https://sketch.com -->
    <title> placerholder/ 16 px</title>
    <desc>Created with Sketch.</desc>
    <g id="Symbol" stroke="none" stroke-width="1" fill="none" fill-rule="evenodd">
        <g id="Outline/19-interface/add-circle" transform="translate(1.000000, 1.000000)" fill="#0067C5" stroke="#0067C5" stroke-width="0.7">
            <path d="M7.66666667,-3.33332733e-08 C11.894,-3.33332733e-08 15.3333334,3.43933331 15.3333334,7.66666667 C15.3333334,11.894 11.894,15.3333334 7.66666667,15.3333334 C3.43933331,15.3333334 -3.33333302e-08,11.894 -3.33333302e-08,7.66666667 C-3.33333302e-08,3.43933331 3.43933331,-3.33332733e-08 7.66666667,-3.33332733e-08 Z M7.66666664,0.666666636 C3.80666665,0.666666636 0.666666636,3.80666665 0.666666636,7.66666664 C0.666666636,11.5266667 3.80666665,14.6666666 7.66666664,14.6666666 C11.5266667,14.6666666 14.6666666,11.5266667 14.6666666,7.66666664 C14.6666666,3.80666665 11.5266667,0.666666636 7.66666664,0.666666636 Z M7.66666667,3.33333331 C7.85066667,3.33333331 8,3.48266665 8,3.66666665 L8,3.66666665 L8,7.33333331 L11.6666667,7.33333331 C11.8506667,7.33333331 12,7.48266666 12,7.66666667 C12,7.85066667 11.8506667,8 11.6666667,8 L11.6666667,8 L8,8 L8,11.6666667 C8,11.8506667 7.85066667,12 7.66666667,12 C7.48266666,12 7.33333331,11.8506667 7.33333331,11.6666667 L7.33333331,11.6666667 L7.33333331,8 L3.66666665,8 C3.48266665,8 3.33333331,7.85066667 3.33333331,7.66666667 C3.33333331,7.48266666 3.48266665,7.33333331 3.66666665,7.33333331 L3.66666665,7.33333331 L7.33333331,7.33333331 L7.33333331,3.66666665 C7.33333331,3.48266665 7.48266666,3.33333331 7.66666667,3.33333331 Z" id="Combined-Shape"></path>
        </g>
    </g>
</svg>