<?xml version="1.0" encoding="UTF-8"?>
<svg width="24px" height="24px" viewBox="0 0 24 24" version="1.1" xmlns="http://www.w3.org/2000/svg" xmlns:xlink="http://www.w3.org/1999/xlink">
    <!-- Generator: Sketch 59.1 (86144) - https://sketch.com -->
    <title>Oversikten/LINE/edition/ pencil 2 blue</title>
    <desc>Created with Sketch.</desc>
    <defs>
        <path d="M1.753,16.624 L7.378,22.25 C7.339,22.27 7.299,22.287 7.256,22.297 L7.256,22.297 L0.789,23.813 C0.613,23.854 0.44,23.799 0.321,23.68 C0.199,23.557 0.148,23.38 0.188,23.212 L0.188,23.212 L1.706,16.747 C1.716,16.704 1.732,16.663 1.753,16.624 L1.753,16.624 Z M14.9632563,3.3807697 L20.6200563,9.0375697 L8.0994366,21.5581894 L2.4426366,15.9013894 L14.9632563,3.3807697 Z M16.3765597,1.9663331 L22.0317597,7.6255331 L21.3243597,8.3324331 L15.6691597,2.6732331 L16.3765597,1.9663331 Z M19.206,0.174 C19.874,0.174 20.502,0.433 20.974,0.907 L20.974,0.907 L23.095,3.027 C24.07,4.002 24.07,5.588 23.095,6.562 L23.095,6.562 L22.741,6.916 L17.084,1.26 L17.438,0.907 C17.91,0.434 18.538,0.174 19.206,0.174 Z" id="path-1"></path>
    </defs>
    <g id="symbol" stroke="#0067C5" stroke-width="1" fill="none">
        <g id="Oversikten-/-veiledergrupper-/-smal-åpen-v2-valgt---hover-edit" transform="translate(-220.000000, -94.000000)">
            <g id="Group-4" transform="translate(15.000000, 57.000000)">
                <g id="FILL/edition/-pencil-2" transform="translate(205.000000, 37.000000)">
                    <mask id="mask-2" fill="white">
                        <use xlink:href="#path-1"></use>
                    </mask>
                    <use id="Mask" fill="none" fill-rule="nonzero" xlink:href="#path-1"></use>
                    <g id="pen" stroke-width="1" fill-rule="evenodd" mask="url(#mask-2)" fill="none">
                        <g transform="translate(12.000000, 12.000000) scale(1, -1) translate(-12.000000, -12.000000) " id="Rectangle-3" >
                            <rect x="0" y="0" width="24" height="24"></rect>
                        </g>
                    </g>
                </g>
            </g>
        </g>
    </g>
</svg>
