<?xml version="1.0" encoding="UTF-8"?>
<svg width="32px" height="31px" viewBox="0 0 32 31" version="1.1" xmlns="http://www.w3.org/2000/svg" xmlns:xlink="http://www.w3.org/1999/xlink">
    <!-- Generator: Sketch 55.2 (78181) - https://sketchapp.com -->
    <title>Nytt i Arbeidsrettet oppfølging</title>
    <desc>Åpner systemendrigner.</desc>
    <g id="Mockup---nye-oppdateringer" stroke="none" stroke-width="1" fill="none" fill-rule="evenodd">
        <g id="Enhetens-oversikt-1440" transform="translate(-1354.000000, -117.000000)" fill="#3E3832">
            <g id="Outline" transform="translate(1354.000000, 117.000000)">
                <path d="M31.3333334,25.3333334 C29.4960001,25.3333334 27.9999999,23.8386667 27.9999999,21.9999999 L27.9999999,14.6666667 C27.9999999,9.81199997 25.0133334,5.39866662 20.5293334,3.56666661 C20.0293334,1.47733327 18.1826667,-6.66666674e-08 15.9999999,-6.66666674e-08 C13.8506667,-6.66666674e-08 11.968,1.50799994 11.468,3.56666661 C6.9853333,5.39733329 3.99999993,9.81066664 3.99999993,14.6666667 L3.99999993,21.9999999 C3.99999993,23.8386667 2.50399994,25.3333334 0.666666603,25.3333334 C0.298666601,25.3333334 -6.66666674e-08,25.632 -6.66666674e-08,25.9999999 C-6.66666674e-08,26.368 0.298666601,26.6666667 0.666666603,26.6666667 L11.4013333,26.6666667 C11.728,28.9213334 13.656,30.6666667 15.9999999,30.6666667 C18.344,30.6666667 20.272,28.9213334 20.5986667,26.6666667 L31.3333334,26.6666667 C31.7013334,26.6666667 31.9999999,26.368 31.9999999,25.9999999 C31.9999999,25.632 31.7013334,25.3333334 31.3333334,25.3333334 Z M16,29.3333334 C14.3906667,29.3333334 13.044,28.1866667 12.7346667,26.6666667 L19.2653333,26.6666667 C18.956,28.1866667 17.6093333,29.3333334 16,29.3333334 Z M3.92933328,25.3333333 C4.79599995,24.4853334 5.33333329,23.3053334 5.33333329,22 L5.33333329,14.6666667 C5.33333329,10.24 8.1253333,6.22666663 12.2813333,4.67999995 C12.508,4.59599995 12.6706667,4.39466662 12.708,4.15599995 C12.9546667,2.54666661 14.3706667,1.33333327 16,1.33333327 C17.652,1.33333327 19.0346667,2.52133328 19.2866667,4.15599995 C19.3226667,4.39466662 19.4866667,4.59466662 19.7133333,4.67999995 C23.872,6.22799996 26.6666667,10.2413333 26.6666667,14.6666667 L26.6666667,22 C26.6666667,23.3053334 27.204,24.4853334 28.0706667,25.3333333 L3.92933328,25.3333333 Z" id="line/alarm"></path>
            </g>
        </g>
    </g>
</svg>