<svg id="alarm_svg" data-name="Layer 1" xmlns="http://www.w3.org/2000/svg" viewBox="0 0 32 32">
<defs>
<style>.cls-1{fill:#3e3832;}</style>
</defs>

<title>Nytt i Arbeidsrettet oppfølging</title>
<desc>Åpner systemendrigner.</desc>
<g id="Outline_16-transfers_transfer-computers-2" data-name="Outline/16-transfers/transfer-computers-2">
<path id="Combined-Shape" class="cls-1" d="M27.89,3.79a3.93,3.93,0,0,1,4,4v14a3.92,3.92,0,0,1-4,4H17v2H22a1.07,1.07,0,1,1,0,2.13H10a1.07,1.07,0,1,1,0-2.13H15.1v-2H3.91a3.93,3.93,0,0,1-4-4V14.05a1,1,0,0,1,.94-1.19,1.17,1.17,0,0,1,1.06,1.19v5.73h28v-12a2.05,2.05,0,0,0-2-2H11.11a1.07,1.07,0,1,1,0-2.13Zm0,20a2,2,0,0,0,2-2h-28a2,2,0,0,0,2,2Z"/></g><g id="Combined-Shape-2" data-name="Combined-Shape"><path class="cls-1" d="M1.42,9h0s0,0,.1,0Z"/><path class="cls-1" d="M1.42,9h0s0,0,.1,0Z"/><path class="cls-1" d="M7,11.19a4.13,4.13,0,0,1-3,.59H4a.67.67,0,0,1-.16.84.49.49,0,0,1-.32.12.92.92,0,0,1-.56-.25l-1.1-1.64a.39.39,0,0,1-.09-.28A.91.91,0,0,1,2,10l.07,0,1.84-.92a.63.63,0,0,1,.71,1l-.74.45a3.24,3.24,0,0,0,2.58-.31A2.9,2.9,0,0,0,7.67,7.18c0-.43.18-.83.5-.83s.64.26.64.51A4.14,4.14,0,0,1,7,11.19Z"/><path class="cls-1" d="M1.86,8.55a2.94,2.94,0,0,1,1.25-3,2.9,2.9,0,0,1,2.56-.3l-.73.46c-.22.22-.39.63-.14.88s.63.39.84.16L7.28,5.7a1.29,1.29,0,0,0,.23-.36.5.5,0,0,0-.07-.48L6.52,3.14l0-.05a.63.63,0,0,0-1.05.69,4.08,4.08,0,0,0-2.85.61A4.15,4.15,0,0,0,.74,8.73.55.55,0,0,0,1,9.2a.51.51,0,0,0,.36.08l.07,0a.4.4,0,0,0,.21-.08A.35.35,0,0,0,1.82,9ZM1.41,9h0s0,0,.09,0S1.41,9.06,1.41,9Z"/></g></svg>