<?xml version="1.0" encoding="UTF-8"?>
<svg width="24px" height="24px" viewBox="0 0 24 24" version="1.1" xmlns="http://www.w3.org/2000/svg" xmlns:xlink="http://www.w3.org/1999/xlink">
    <!-- Generator: Sketch 55.2 (78181) - https://sketchapp.com -->
    <title>Ny dialog Copy</title>
    <desc>Created with Sketch.</desc>
    <defs>
        <path d="M12,0 C18.6166957,0 24,5.38330435 24,12 C24,18.6166957 18.6166957,24 12,24 C5.38330435,24 0,18.6166957 0,12 C0,5.38330435 5.38330435,0 12,0 Z M12,22.9565217 C18.0417391,22.9565217 22.9565217,18.0417391 22.9565217,12 C22.9565217,5.95826087 18.0417391,1.04347826 12,1.04347826 C5.95826087,1.04347826 1.04347826,5.95826087 1.04347826,12 C1.04347826,18.0417391 5.95826087,22.9565217 12,22.9565217 Z M15.1304348,18.7826087 C15.4184348,18.7826087 15.6521739,19.0163478 15.6521739,19.3043478 C15.6521739,19.5923478 15.4184348,19.826087 15.1304348,19.826087 L8.86956522,19.826087 C8.58156522,19.826087 8.34782609,19.5923478 8.34782609,19.3043478 C8.34782609,19.0163478 8.58156522,18.7826087 8.86956522,18.7826087 L11.4782609,18.7826087 L11.4782609,10.4347826 L9.91304348,10.4347826 C9.62504348,10.4347826 9.39130435,10.2010435 9.39130435,9.91304348 C9.39130435,9.62504348 9.62504348,9.39130435 9.91304348,9.39130435 L12,9.39130435 C12.288,9.39130435 12.5217391,9.62504348 12.5217391,9.91304348 L12.5217391,18.7826087 L15.1304348,18.7826087 Z M11.4782609,6.7826087 C10.9019637,6.7826087 10.4347826,6.31542757 10.4347826,5.73913043 C10.4347826,5.1628333 10.9019637,4.69565217 11.4782609,4.69565217 C12.054558,4.69565217 12.5217391,5.1628333 12.5217391,5.73913043 C12.5217391,6.31542757 12.054558,6.7826087 11.4782609,6.7826087 Z" id="path-1"></path>
    </defs>
    <g id="Ny-dialog-Copy" stroke="none" stroke-width="1" fill="none" fill-rule="evenodd">
        <rect fill="#FFFFFF" x="0" y="0" width="24" height="24"></rect>
        <g id="LINE/alerts/-infomation-circle">
            <mask id="mask-2" fill="white">
                <use xlink:href="#path-1"></use>
            </mask>
            <use id="Mask" fill="#3E3832" fill-rule="evenodd" xlink:href="#path-1"></use>
            <g id="↪︎-🌈" stroke-width="1" fill-rule="evenodd" mask="url(#mask-2)" fill="#3E3832">
                <g transform="translate(12.000000, 12.000000) scale(1, -1) translate(-12.000000, -12.000000) " id="iconfarge-/-nav-grå">
                    <rect x="0" y="0" width="24" height="24"></rect>
                </g>
            </g>
        </g>
    </g>
</svg>
