<?xml version="1.0" encoding="UTF-8"?>
<svg width="30px" height="25px" viewBox="0 0 30 25" version="1.1" xmlns="http://www.w3.org/2000/svg" xmlns:xlink="http://www.w3.org/1999/xlink">
    <title>Group</title>
    <g id="Ny-layou-t-for-filtre" stroke="none" stroke-width="1" fill="none" fill-rule="evenodd">
        <g id="2-Filtre-til-høyre---lukket" transform="translate(-1094.000000, -111.000000)">
            <g id="Group" transform="translate(1109.100000, 123.000000) scale(-1, 1) translate(-1109.100000, -123.000000) translate(1094.600000, 111.000000)">
                <g id="Outline/11-users/person-1" transform="translate(10.838710, 0.098995)">
                    <g id="Group" transform="translate(1.509677, 1.870968)">
                        <path d="M13.3432839,11.8379871 L9.81290327,10.5874323 L9.81290327,8.86240004 C10.8945871,7.98379358 11.6056452,6.51994841 11.6056452,4.86451615 C11.6056452,2.18229678 9.74345811,0 7.45403229,0 C5.16460647,0 3.30241937,2.18229678 3.30241937,4.86451615 C3.30241937,6.61424519 4.09726453,8.14619358 5.28387099,9.0038452 L5.28387099,10.5881807 L1.75273549,11.8387355 C0.704264519,12.2099355 -2.68172581e-15,13.2008001 -2.68172581e-15,14.304671 L-2.68172581e-15,15.7161291 C-2.68172581e-15,15.9226839 0.169083872,16.0903226 0.377419356,16.0903226 L14.7193549,16.0903226 C14.9276904,16.0903226 15.0967743,15.9226839 15.0967743,15.7161291 L15.0967743,14.304671 C15.0967743,13.2015484 14.3917549,12.2099355 13.3432839,11.8379871 Z" id="Path" fill="#3E3832"></path>
                        <path d="M7.45403229,0.7483871 C9.11769681,0.7483871 10.5028259,2.20549678 10.7926839,4.12136776 C10.7874,4.12211615 10.7843807,4.12136776 10.7790968,4.12286453 C9.68382585,4.33316131 9.00371617,3.97917421 8.35908391,2.8603355 C8.29114842,2.74134195 8.1892452,2.67323872 8.02393552,2.67174195 C7.88580003,2.67398711 7.76049681,2.75107098 7.69633552,2.87305808 C7.34910971,3.53538066 6.17684519,4.11612905 5.18951615,4.11612905 C4.80530325,4.11612905 4.47543873,4.05326453 4.15085808,3.9215484 C4.5041226,2.10521291 5.84924519,0.7483871 7.45403229,0.7483871 Z" id="Path" fill="#FFFFFF"></path>
                        <path d="M4.05725808,4.86451615 C4.05725808,4.80389679 4.06254195,4.74477421 4.06480647,4.68490325 C4.41882582,4.80240002 4.7849226,4.86451615 5.18951615,4.86451615 C6.22666454,4.86451615 7.36420648,4.37581937 8.00883874,3.70451614 C8.6104452,4.53447744 9.31999359,4.92812905 10.221271,4.92812905 C10.4197936,4.92812905 10.6319033,4.90268389 10.8508065,4.86451615 C10.8508065,7.13437422 9.32678714,8.9806452 7.45403229,8.9806452 C5.58127744,8.9806452 4.05725808,7.13437422 4.05725808,4.86451615 Z" id="Path" fill="#FFFFFF"></path>
                        <path d="M14.3419355,15.3419355 L0.754838713,15.3419355 L0.754838713,14.304671 C0.754838713,13.515871 1.25831613,12.8078968 2.00711614,12.5429678 L5.78810325,11.2041033 C5.93831615,11.1509678 6.0387097,11.0095226 6.0387097,10.8516129 L6.0387097,9.43192262 C6.48104519,9.62051617 6.95659358,9.7290323 7.45403229,9.7290323 C8.02242584,9.7290323 8.56440004,9.59357423 9.05806455,9.35034843 L9.05806455,10.8516129 C9.05806455,11.0095226 9.1584581,11.1509678 9.30867101,11.2041033 L13.0889033,12.5429678 C13.8384581,12.8086452 14.3419355,13.5166194 14.3419355,14.304671 L14.3419355,15.3419355 Z" id="Path" fill="#FFFFFF"></path>
                    </g>
                </g>
                <g id="Outline/11-users/person-1" transform="translate(0.000000, 2.731253)">
                    <g id="Group" transform="translate(1.509677, 1.870968)">
                        <path d="M13.3432839,11.8379871 L9.81290327,10.5874323 L9.81290327,8.86240004 C10.8945871,7.98379358 11.6056452,6.51994841 11.6056452,4.86451615 C11.6056452,2.18229678 9.74345811,0 7.45403229,0 C5.16460647,0 3.30241937,2.18229678 3.30241937,4.86451615 C3.30241937,6.61424519 4.09726453,8.14619358 5.28387099,9.0038452 L5.28387099,10.5881807 L1.75273549,11.8387355 C0.704264519,12.2099355 -2.68172581e-15,13.2008001 -2.68172581e-15,14.304671 L-2.68172581e-15,15.7161291 C-2.68172581e-15,15.9226839 0.169083872,16.0903226 0.377419356,16.0903226 L14.7193549,16.0903226 C14.9276904,16.0903226 15.0967743,15.9226839 15.0967743,15.7161291 L15.0967743,14.304671 C15.0967743,13.2015484 14.3917549,12.2099355 13.3432839,11.8379871 Z" id="Path" fill="#3E3832"></path>
                        <path d="M7.45403229,0.7483871 C9.11769681,0.7483871 10.5028259,2.20549678 10.7926839,4.12136776 C10.7874,4.12211615 10.7843807,4.12136776 10.7790968,4.12286453 C9.68382585,4.33316131 9.00371617,3.97917421 8.35908391,2.8603355 C8.29114842,2.74134195 8.1892452,2.67323872 8.02393552,2.67174195 C7.88580003,2.67398711 7.76049681,2.75107098 7.69633552,2.87305808 C7.34910971,3.53538066 6.17684519,4.11612905 5.18951615,4.11612905 C4.80530325,4.11612905 4.47543873,4.05326453 4.15085808,3.9215484 C4.5041226,2.10521291 5.84924519,0.7483871 7.45403229,0.7483871 Z" id="Path" fill="#FFFFFF"></path>
                        <path d="M4.05725808,4.86451615 C4.05725808,4.80389679 4.06254195,4.74477421 4.06480647,4.68490325 C4.41882582,4.80240002 4.7849226,4.86451615 5.18951615,4.86451615 C6.22666454,4.86451615 7.36420648,4.37581937 8.00883874,3.70451614 C8.6104452,4.53447744 9.31999359,4.92812905 10.221271,4.92812905 C10.4197936,4.92812905 10.6319033,4.90268389 10.8508065,4.86451615 C10.8508065,7.13437422 9.32678714,8.9806452 7.45403229,8.9806452 C5.58127744,8.9806452 4.05725808,7.13437422 4.05725808,4.86451615 Z" id="Path" fill="#FFFFFF"></path>
                        <path d="M14.3419355,15.3419355 L0.754838713,15.3419355 L0.754838713,14.304671 C0.754838713,13.515871 1.25831613,12.8078968 2.00711614,12.5429678 L5.78810325,11.2041033 C5.93831615,11.1509678 6.0387097,11.0095226 6.0387097,10.8516129 L6.0387097,9.43192262 C6.48104519,9.62051617 6.95659358,9.7290323 7.45403229,9.7290323 C8.02242584,9.7290323 8.56440004,9.59357423 9.05806455,9.35034843 L9.05806455,10.8516129 C9.05806455,11.0095226 9.1584581,11.1509678 9.30867101,11.2041033 L13.0889033,12.5429678 C13.8384581,12.8086452 14.3419355,13.5166194 14.3419355,14.304671 L14.3419355,15.3419355 Z" id="Path" fill="#FFFFFF"></path>
                    </g>
                </g>
                <g id="Outline/11-users/person-1" transform="translate(6.193548, 5.982866)">
                    <g id="Group" transform="translate(1.509677, 1.870968)">
                        <path d="M13.3432839,11.8379871 L9.81290327,10.5874323 L9.81290327,8.86240004 C10.8945871,7.98379358 11.6056452,6.51994841 11.6056452,4.86451615 C11.6056452,2.18229678 9.74345811,0 7.45403229,0 C5.16460647,0 3.30241937,2.18229678 3.30241937,4.86451615 C3.30241937,6.61424519 4.09726453,8.14619358 5.28387099,9.0038452 L5.28387099,10.5881807 L1.75273549,11.8387355 C0.704264519,12.2099355 -2.68172581e-15,13.2008001 -2.68172581e-15,14.304671 L-2.68172581e-15,15.7161291 C-2.68172581e-15,15.9226839 0.169083872,16.0903226 0.377419356,16.0903226 L14.7193549,16.0903226 C14.9276904,16.0903226 15.0967743,15.9226839 15.0967743,15.7161291 L15.0967743,14.304671 C15.0967743,13.2015484 14.3917549,12.2099355 13.3432839,11.8379871 Z" id="Path" fill="#3E3832"></path>
                        <path d="M7.45403229,0.7483871 C9.11769681,0.7483871 10.5028259,2.20549678 10.7926839,4.12136776 C10.7874,4.12211615 10.7843807,4.12136776 10.7790968,4.12286453 C9.68382585,4.33316131 9.00371617,3.97917421 8.35908391,2.8603355 C8.29114842,2.74134195 8.1892452,2.67323872 8.02393552,2.67174195 C7.88580003,2.67398711 7.76049681,2.75107098 7.69633552,2.87305808 C7.34910971,3.53538066 6.17684519,4.11612905 5.18951615,4.11612905 C4.80530325,4.11612905 4.47543873,4.05326453 4.15085808,3.9215484 C4.5041226,2.10521291 5.84924519,0.7483871 7.45403229,0.7483871 Z" id="Path" fill="#FFFFFF"></path>
                        <path d="M4.05725808,4.86451615 C4.05725808,4.80389679 4.06254195,4.74477421 4.06480647,4.68490325 C4.41882582,4.80240002 4.7849226,4.86451615 5.18951615,4.86451615 C6.22666454,4.86451615 7.36420648,4.37581937 8.00883874,3.70451614 C8.6104452,4.53447744 9.31999359,4.92812905 10.221271,4.92812905 C10.4197936,4.92812905 10.6319033,4.90268389 10.8508065,4.86451615 C10.8508065,7.13437422 9.32678714,8.9806452 7.45403229,8.9806452 C5.58127744,8.9806452 4.05725808,7.13437422 4.05725808,4.86451615 Z" id="Path" fill="#FFFFFF"></path>
                        <path d="M14.3419355,15.3419355 L0.754838713,15.3419355 L0.754838713,14.304671 C0.754838713,13.515871 1.25831613,12.8078968 2.00711614,12.5429678 L5.78810325,11.2041033 C5.93831615,11.1509678 6.0387097,11.0095226 6.0387097,10.8516129 L6.0387097,9.43192262 C6.48104519,9.62051617 6.95659358,9.7290323 7.45403229,9.7290323 C8.02242584,9.7290323 8.56440004,9.59357423 9.05806455,9.35034843 L9.05806455,10.8516129 C9.05806455,11.0095226 9.1584581,11.1509678 9.30867101,11.2041033 L13.0889033,12.5429678 C13.8384581,12.8086452 14.3419355,13.5166194 14.3419355,14.304671 L14.3419355,15.3419355 Z" id="Path" fill="#FFFFFF"></path>
                    </g>
                </g>
            </g>
        </g>
    </g>
</svg>