<svg width="24" height="24" viewBox="0 0 24 24" xmlns="http://www.w3.org/2000/svg"
    xmlns:xlink="http://www.w3.org/1999/xlink" version="1.1">
    <path transform="matrix(1,0,0,-1,6.5,22.5596)"
        d="M11 1.559601 10.463745 1.035263C10.676893 .81727 11.000792 .750002 11.283115 .865089 11.56544 .980179 11.75 1.254721 11.75 1.559601H11ZM5.5 7.184601 6.036255 7.708939C5.895149 7.853251 5.701834 7.934601 5.5 7.934601 5.298166 7.934601 5.104851 7.853251 4.963745 7.708939L5.5 7.184601ZM0 1.559601H-.75C-.75 1.254721-.56544 .980179-.283115 .865089-.000791 .750002 .323107 .81727 .536255 1.035263L0 1.559601ZM0 19.5596V20.3096C-.414214 20.3096-.75 19.973814-.75 19.5596H0ZM11 19.5596H11.75C11.75 19.973814 11.414214 20.3096 11 20.3096V19.5596ZM10.161255 3.490189 9.636917 4.026444 8.564407 2.977768 9.088745 2.441513 10.161255 3.490189ZM6.338745 5.254013 6.863083 4.717757 7.935594 5.766434 7.411255 6.302689 6.338745 5.254013ZM3.588745 6.302689 3.064407 5.766434 4.136917 4.717757 4.661255 5.254013 3.588745 6.302689ZM1.911255 2.441513 2.435593 2.977768 1.363083 4.026444 .838745 3.490189 1.911255 2.441513ZM.75 3.059601V3.809601H-.75V3.059601H.75ZM-.75 6.059601V5.309601H.75V6.059601H-.75ZM.75 9.059601V9.809601H-.75V9.059601H.75ZM-.75 12.059601V11.309601H.75V12.059601H-.75ZM.75 15.059601V15.809601H-.75V15.059601H.75ZM-.75 18.0596V17.3096H.75V18.0596H-.75ZM1.375 18.8096H2.125V20.3096H1.375V18.8096ZM4.125 20.3096H3.375V18.8096H4.125V20.3096ZM6.875 18.8096H7.625V20.3096H6.875V18.8096ZM9.625 20.3096H8.875V18.8096H9.625V20.3096ZM10.25 18.0596V17.3096H11.75V18.0596H10.25ZM11.75 15.059601V15.809601H10.25V15.059601H11.75ZM10.25 12.059601V11.309601H11.75V12.059601H10.25ZM11.75 9.059601V9.809601H10.25V9.059601H11.75ZM10.25 6.059601V5.309601H11.75V6.059601H10.25ZM11.75 3.059601V3.809601H10.25V3.059601H11.75ZM11.536255 2.083939 10.161255 3.490189 9.088745 2.441513 10.463745 1.035263 11.536255 2.083939ZM7.411255 6.302689 6.036255 7.708939 4.963745 6.660263 6.338745 5.254013 7.411255 6.302689ZM4.963745 7.708939 3.588745 6.302689 4.661255 5.254013 6.036255 6.660263 4.963745 7.708939ZM.838745 3.490189-.536255 2.083939 .536255 1.035263 1.911255 2.441513 .838745 3.490189ZM.75 1.559601V3.059601H-.75V1.559601H.75ZM.75 6.059601V9.059601H-.75V6.059601H.75ZM.75 12.059601V15.059601H-.75V12.059601H.75ZM.75 18.0596V19.5596H-.75V18.0596H.75ZM0 18.8096H1.375V20.3096H0V18.8096ZM4.125 18.8096H6.875V20.3096H4.125V18.8096ZM9.625 18.8096H11V20.3096H9.625V18.8096ZM10.25 19.5596V18.0596H11.75V19.5596H10.25ZM10.25 15.059601V12.059601H11.75V15.059601H10.25ZM10.25 9.059601V6.059601H11.75V9.059601H10.25ZM10.25 3.059601V1.559601H11.75V3.059601H10.25Z"
        fill="#020c1c" fill-opacity=".68" />
</svg>