<svg xmlns="http://www.w3.org/2000/svg" xmlns:xlink="http://www.w3.org/1999/xlink" version="1.1" width="1em"
     height="1em" viewBox="0 0 20 20" aria-labelledby="title-id" role="img">
    <title id="title-id">Ingen kategori</title>
    <path transform="matrix(1,0,0,-1,4.5,21.079466)"
          d="M11 2.079466 10.284993 1.380348C10.56919 1.089693 11.001055 1 11.377487 1.153452 11.75392 1.306902 12 1.672958 12 2.079466H11ZM5.5 7.704466 6.215007 8.403584C6.026866 8.596001 5.769112 8.704466 5.5 8.704466 5.230888 8.704466 4.973135 8.596001 4.784994 8.403584L5.5 7.704466ZM0 2.079466H-1C-1 1.672958-.75392 1.306902-.377487 1.153452-.001055 1 .43081 1.089693 .715007 1.380348L0 2.079466ZM0 20.079466V21.079466C-.552285 21.079466-1 20.63175-1 20.079466H0ZM11 20.079466H12C12 20.63175 11.552285 21.079466 11 21.079466V20.079466ZM10.340007 4.184834C9.953895 4.57972 9.32077 4.586835 8.925882 4.200723 8.530995 3.814611 8.523882 3.181486 8.909993 2.786598L10.340007 4.184834ZM6.159994 5.599098C6.546105 5.204211 7.179231 5.197097 7.574118 5.583209 7.969005 5.969321 7.976119 6.602447 7.590007 6.997334L6.159994 5.599098ZM3.409993 6.997334C3.023881 6.602447 3.030995 5.969321 3.425882 5.583209 3.82077 5.197097 4.453895 5.204211 4.840007 5.599098L3.409993 6.997334ZM2.090007 2.786598C2.476119 3.181486 2.469005 3.814611 2.074118 4.200723 1.67923 4.586835 1.046105 4.57972 .659993 4.184834L2.090007 2.786598ZM1 3.579466C1 4.131751 .552285 4.579466 0 4.579466-.552285 4.579466-1 4.131751-1 3.579466H1ZM-1 6.579466C-1 6.027181-.552285 5.579466 0 5.579466 .552285 5.579466 1 6.027181 1 6.579466H-1ZM1 9.579466C1 10.13175 .552285 10.579466 0 10.579466-.552285 10.579466-1 10.13175-1 9.579466H1ZM-1 12.579466C-1 12.027181-.552285 11.579466 0 11.579466 .552285 11.579466 1 12.027181 1 12.579466H-1ZM1 15.579466C1 16.13175 .552285 16.579466 0 16.579466-.552285 16.579466-1 16.13175-1 15.579466H1ZM-1 18.579466C-1 18.027182-.552285 17.579466 0 17.579466 .552285 17.579466 1 18.027182 1 18.579466H-1ZM1.375 19.079466C1.927285 19.079466 2.375 19.527182 2.375 20.079466 2.375 20.63175 1.927285 21.079466 1.375 21.079466V19.079466ZM4.125 21.079466C3.572715 21.079466 3.125 20.63175 3.125 20.079466 3.125 19.527182 3.572715 19.079466 4.125 19.079466V21.079466ZM6.875 19.079466C7.427285 19.079466 7.875 19.527182 7.875 20.079466 7.875 20.63175 7.427285 21.079466 6.875 21.079466V19.079466ZM9.625 21.079466C9.072716 21.079466 8.625 20.63175 8.625 20.079466 8.625 19.527182 9.072716 19.079466 9.625 19.079466V21.079466ZM10 18.579466C10 18.027182 10.447716 17.579466 11 17.579466 11.552285 17.579466 12 18.027182 12 18.579466H10ZM12 15.579466C12 16.13175 11.552285 16.579466 11 16.579466 10.447716 16.579466 10 16.13175 10 15.579466H12ZM10 12.579466C10 12.027182 10.447716 11.579466 11 11.579466 11.552285 11.579466 12 12.027182 12 12.579466H10ZM12 9.579466C12 10.131751 11.552285 10.579466 11 10.579466 10.447716 10.579466 10 10.131751 10 9.579466H12ZM10 6.579466C10 6.027181 10.447716 5.579466 11 5.579466 11.552285 5.579466 12 6.027181 12 6.579466H10ZM12 3.579466C12 4.13175 11.552285 4.579466 11 4.579466 10.447716 4.579466 10 4.13175 10 3.579466H12ZM11.715007 2.778584 10.340007 4.184834 8.909993 2.786598 10.284993 1.380348 11.715007 2.778584ZM7.590007 6.997334 6.215007 8.403584 4.784994 7.005348 6.159994 5.599098 7.590007 6.997334ZM4.784994 8.403584 3.409993 6.997334 4.840007 5.599098 6.215007 7.005348 4.784994 8.403584ZM.659993 4.184834-.715007 2.778584 .715007 1.380348 2.090007 2.786598 .659993 4.184834ZM1 2.079466V3.579466H-1V2.079466H1ZM1 6.579466V9.579466H-1V6.579466H1ZM1 12.579466V15.579466H-1V12.579466H1ZM1 18.579466V20.079466H-1V18.579466H1ZM0 19.079466H1.375V21.079466H0V19.079466ZM4.125 19.079466H6.875V21.079466H4.125V19.079466ZM9.625 19.079466H11V21.079466H9.625V19.079466ZM10 20.079466V18.579466H12V20.079466H10ZM10 15.579466V12.579466H12V15.579466H10ZM10 9.579466V6.579466H12V9.579466H10ZM10 3.579466V2.079466H12V3.579466H10Z"
          fill="#020c1c" fill-opacity=".68"/>
</svg>
