<svg width="1em" height="1em" viewBox="0 0 24 24" fill="none" xmlns="http://www.w3.org/2000/svg">
    <path d="M1.04484 11C1.55007 5.3935 6.26196 1 12 1C17.738 1 22.4499 5.3935 22.9552 11H14H13.9612H13.9223H13.8834H13.8445H13.8056H13.7667H13.7278H13.6888H13.6499H13.6109H13.5719H13.5329H13.4939H13.4548H13.4158H13.3767H13.3377H13.2986H13.2595H13.2204H13.1813H13.1422H13.1031H13.0639H13.0248H12.9857H12.9465H12.9073H12.8682H12.829H12.7898H12.7506H12.7114H12.6722H12.633H12.5938H12.5546H12.5154H12.4761H12.4369H12.3977H12.3585H12.3192H12.28H12.2408H12.2015H12.1623H12.1231H12.0838H12.0446H12.0054H11.9662H11.9269H11.8877H11.8485H11.8093H11.77H11.7308H11.6916H11.6524H11.6132H11.574H11.5348H11.4956H11.4565H11.4173H11.3781H11.339H11.2998H11.2607H11.2215H11.1824H11.1433H11.1042H11.0651H11.026H10.9869H10.9479H10.9088H10.8698H10.8308H10.7917H10.7527H10.7137H10.6748H10.6358H10.5969H10.5579H10.519H10.4801H10.4412H10.4023H10.3635H10.3246H10.2858H10.247H10.2082H10.1694H10.1307H10.092H10.0532H10.0145H9.97587H9.93722H9.89858H9.85997H9.82138H9.78281H9.74426H9.70574H9.66724H9.62876H9.5903H9.55187H9.51347H9.47508H9.43673H9.3984H9.36009H9.32181H9.28356H9.24533H9.20713H9.16896H9.13082H9.0927H9.05462H9.01656H8.97853H8.94053H8.90256H8.86463H8.82672H8.78884H8.751H8.71319H8.67541H8.63766H8.59995H8.56227H8.52462H8.48701H8.44943H8.41188H8.37438H8.3369H8.29947H8.26206H8.2247H8.18737H8.15008H8.11283H8.07562H8.03844H8.00131H7.96421H7.92715H7.89013H7.85316H7.81622H7.77932H7.74247H7.70566H7.66889H7.63216H7.59547H7.55883H7.52223H7.48568H7.44917H7.4127H7.37628H7.33991H7.30358H7.26729H7.23105H7.19486H7.15872H7.12263H7.08658H7.05058H7.01463H6.97873H6.94287H6.90707H6.87132H6.83562H6.79996H6.76436H6.72881H6.69332H6.65787H6.62248H6.58714H6.55186H6.51662H6.48145H6.44632H6.41125H6.37624H6.34128H6.30638H6.27154H6.23675H6.20201H6.16734H6.13272H6.09816H6.06366H6.02922H5.99484H5.96051H5.92625H5.89205H5.8579H5.82382H5.7898H5.75584H5.72195H5.68811H5.65434H5.62063H5.58699H5.55341H5.51989H5.48644H5.45305H5.41973H5.38648H5.35329H5.32016H5.28711H5.25412H5.22119H5.18834H5.15555H5.12284H5.09019H5.05761H5.0251H4.99266H4.96029H4.92799H4.89576H4.86361H4.83153H4.79951H4.76757H4.73571H4.70392H4.6722H4.64055H4.60898H4.57748H4.54606H4.51472H4.48345H4.45226H4.42114H4.3901H4.35914H4.32825H4.29745H4.26672H4.23607H4.2055H4.17501H4.14459H4.11426H4.08401H4.05384H4.02375H3.99375H3.96382H3.93398H3.90422H3.87455H3.84495H3.81544H3.78602H3.75668H3.72742H3.69825H3.66917H3.64017H3.61126H3.58243H3.55369H3.52504H3.49648H3.468H3.43962H3.41132H3.38311H3.35499H3.32697H3.29903H3.27118H3.24342H3.21576H3.18819H3.1607H3.13332H3.10602H3.07882H3.05171H3.0247H2.99778H2.97095H2.94422H2.91758H2.89105H2.8646H2.83826H2.81201H2.78585H2.7598H2.73384H2.70798H2.68222H2.65656H2.631H2.60554H2.58018H2.55492H2.52976H2.5047H2.47974H2.45489H2.43014H2.40549H2.38094H2.3565H2.33216H2.30792H2.28379H2.25976H2.23584H2.21203H2.18832H2.16471H2.14122H2.11783H2.09455H2.07137H2.04831H2.02535H2.0025H1.97976H1.95713H1.93461H1.9122H1.8899H1.86772H1.84564H1.82367H1.80182H1.78008H1.75846H1.73694H1.71554H1.69425H1.67308H1.65203H1.63108H1.61026H1.58955H1.56895H1.54847H1.52811H1.50787H1.48774H1.46773H1.44784H1.42807H1.40841H1.38888H1.36947H1.35017H1.331H1.31195H1.29302H1.27421H1.25552H1.23695H1.21851H1.20019H1.182H1.16392H1.14597H1.12815H1.11045H1.09288H1.07543H1.05811H1.04484Z" fill="#C1CB33" stroke="#23262A" stroke-width="2"/>
</svg>