<svg width="1em" height="1em" viewBox="2 2 24 24" fill="none" xmlns="http://www.w3.org/2000/svg">
    <path fill-rule="evenodd" clip-rule="evenodd" d="M7.16667 5.66665C7.16667 4.56208 8.0621 3.66666 9.16667 3.66666H11.5833C12.1356 3.66666 12.5833 4.11437 12.5833 4.66666C12.5833 5.21894 12.1356 5.66666 11.5833 5.66666L9.16667 5.66665V7.87499C9.16667 8.42727 8.71896 8.87499 8.16667 8.87499C7.61439 8.87499 7.16667 8.42727 7.16667 7.87499V5.66665ZM15.4167 4.66666C15.4167 4.11437 15.8644 3.66666 16.4167 3.66666H18.8333C19.9379 3.66666 20.8333 4.56209 20.8333 5.66666V7.87499C20.8333 8.42727 20.3856 8.87499 19.8333 8.87499C19.2811 8.87499 18.8333 8.42727 18.8333 7.87499L18.8333 5.66666H16.4167C15.8644 5.66666 15.4167 5.21894 15.4167 4.66666ZM8.16667 11.2917C8.71896 11.2917 9.16667 11.7394 9.16667 12.2917V16.7083C9.16667 17.2606 8.71896 17.7083 8.16667 17.7083C7.61439 17.7083 7.16667 17.2606 7.16667 16.7083V12.2917C7.16667 11.7394 7.61439 11.2917 8.16667 11.2917ZM19.8333 11.2917C20.3856 11.2917 20.8333 11.7394 20.8333 12.2917V16.7083C20.8333 17.2606 20.3856 17.7083 19.8333 17.7083C19.2811 17.7083 18.8333 17.2606 18.8333 16.7083V12.2917C18.8333 11.7394 19.2811 11.2917 19.8333 11.2917ZM13.2929 16.7929C13.6834 16.4024 14.3166 16.4024 14.7071 16.7929L16.1654 18.2512C16.556 18.6417 16.556 19.2749 16.1654 19.6654C15.7749 20.056 15.1418 20.056 14.7512 19.6654L14 18.9142L13.2488 19.6654C12.8583 20.056 12.2251 20.056 11.8346 19.6654C11.444 19.2749 11.444 18.6417 11.8346 18.2512L13.2929 16.7929ZM9.15772 20.9906C9.09207 20.5019 8.67338 20.125 8.16667 20.125C7.61439 20.125 7.16667 20.5727 7.16667 21.125V23.3333C7.16667 23.7378 7.41031 24.1024 7.78399 24.2572C8.15766 24.412 8.58778 24.3264 8.87378 24.0404L10.3321 22.5821C10.7226 22.1916 10.7226 21.5584 10.3321 21.1679C10.0142 20.85 9.53544 20.7909 9.15772 20.9906ZM19.8333 20.125C20.3856 20.125 20.8333 20.5727 20.8333 21.125V23.3333C20.8333 23.7378 20.5897 24.1024 20.216 24.2572C19.8423 24.412 19.4122 24.3264 19.1262 24.0404L17.6679 22.5821C17.2774 22.1916 17.2774 21.5584 17.6679 21.1679C17.9858 20.85 18.4646 20.7909 18.8423 20.9906C18.9079 20.5019 19.3266 20.125 19.8333 20.125Z" fill="#23262A"/>
</svg>
