<svg width="1em" height="1em" viewBox="0 0 24 24" fill="none" xmlns="http://www.w3.org/2000/svg">
    <path fill-rule="evenodd" clip-rule="evenodd" d="M0.166992 2.66662C0.166992 1.56205 1.06242 0.666626 2.16699 0.666626H4.58366C5.13594 0.666626 5.58366 1.11434 5.58366 1.66663C5.58366 2.21891 5.13594 2.66663 4.58366 2.66663L2.16699 2.66662V4.87496C2.16699 5.42724 1.71928 5.87496 1.16699 5.87496C0.614707 5.87496 0.166992 5.42724 0.166992 4.87496V2.66662ZM8.41699 1.66663C8.41699 1.11434 8.86471 0.666626 9.41699 0.666626H11.8337C12.9382 0.666626 13.8337 1.56206 13.8337 2.66663V4.87496C13.8337 5.42724 13.3859 5.87496 12.8337 5.87496C12.2814 5.87496 11.8337 5.42724 11.8337 4.87496L11.8337 2.66663H9.41699C8.86471 2.66663 8.41699 2.21891 8.41699 1.66663ZM1.16699 8.29163C1.71928 8.29163 2.16699 8.73934 2.16699 9.29163V13.7083C2.16699 14.2606 1.71928 14.7083 1.16699 14.7083C0.614707 14.7083 0.166992 14.2606 0.166992 13.7083V9.29163C0.166992 8.73934 0.614707 8.29163 1.16699 8.29163ZM12.8337 8.29163C13.3859 8.29163 13.8337 8.73934 13.8337 9.29163V13.7083C13.8337 14.2606 13.3859 14.7083 12.8337 14.7083C12.2814 14.7083 11.8337 14.2606 11.8337 13.7083V9.29163C11.8337 8.73934 12.2814 8.29163 12.8337 8.29163ZM6.29322 13.7929C6.68374 13.4023 7.31691 13.4023 7.70743 13.7929L9.16577 15.2512C9.55629 15.6417 9.55629 16.2749 9.16577 16.6654C8.77524 17.0559 8.14208 17.0559 7.75155 16.6654L7.00033 15.9142L6.2491 16.6654C5.85857 17.0559 5.22541 17.0559 4.83489 16.6654C4.44436 16.2749 4.44436 15.6417 4.83489 15.2512L6.29322 13.7929ZM2.15804 17.9906C2.09239 17.5018 1.6737 17.125 1.16699 17.125C0.614707 17.125 0.166992 17.5727 0.166992 18.125V20.3333C0.166992 20.7378 0.410634 21.1024 0.784309 21.2572C1.15798 21.412 1.5881 21.3264 1.8741 21.0404L3.33243 19.5821C3.72296 19.1915 3.72296 18.5584 3.33243 18.1679C3.0145 17.8499 2.53576 17.7908 2.15804 17.9906ZM12.8337 17.125C13.3859 17.125 13.8337 17.5727 13.8337 18.125V20.3333C13.8337 20.7378 13.59 21.1024 13.2163 21.2572C12.8427 21.412 12.4126 21.3264 12.1266 21.0404L10.6682 19.5821C10.2777 19.1915 10.2777 18.5584 10.6682 18.1679C10.9861 17.8499 11.4649 17.7908 11.8426 17.9906C11.9083 17.5018 12.327 17.125 12.8337 17.125Z" fill="#23262A"/>
</svg>
