<svg width="20" height="20" viewBox="0 0 20 20" fill="none" xmlns="http://www.w3.org/2000/svg">
    <rect x="1" y="1" width="18" height="18" rx="3" stroke="#020C1C" fill="#FFF" stroke-opacity="0.68" stroke-width="2" stroke-dasharray="4 4"/>
    <path fill-rule="evenodd" clip-rule="evenodd" d="M14.188 4.91789C13.3061 4.02962 11.8703 4.02704 10.9852 4.91214L5.32345 10.5739C5.23332 10.664 5.16765 10.7756 5.13264 10.8982L4.27888 13.8863C4.20414 14.1479 4.2769 14.4294 4.46902 14.622C4.66114 14.8146 4.94248 14.8881 5.20424 14.814L8.18679 13.97C8.31005 13.9351 8.42232 13.8693 8.5129 13.7787L14.1823 8.10927C15.0629 7.22864 15.0655 5.80167 14.188 4.91789ZM12.1223 5.90584C12.4213 5.6771 12.851 5.70024 13.1236 5.97474C13.3946 6.24773 13.4161 6.67474 13.1886 6.97217L12.1223 5.90584ZM11.0569 6.96177L6.52153 11.4971L6.09094 13.0042L7.59037 12.5799L12.1327 8.03757L11.0569 6.96177Z" fill="#020C1C" fill-opacity="0.68"/>
</svg>
