<svg xmlns="http://www.w3.org/2000/svg" xmlns:xlink="http://www.w3.org/1999/xlink" version="1.1" width="1em"
     height="1em" viewBox="0 0 20 20" aria-labelledby="title-id" role="img">
    <title id="title-id">Ny huskelapp</title>
    <defs>
        <clipPath id="clip_0">
            <path transform="matrix(1,0,0,-1,0,19.997788)"
                  d="M0 15.997791C0 18.20693 1.790861 19.997788 4 19.997788H16C18.209139 19.997788 20 18.206927 20 15.997787V3.999999C20 1.790859 18.209139 .000002 16 .000002H4C1.790861 .000002 0 1.790863 0 4.000002V15.997791Z"
                  fill-rule="evenodd"/>
        </clipPath>
    </defs>
    <path transform="matrix(1,0,0,-1,3.486875,16.767687)"
          d="M12.204457 12.496059C11.168227 13.539757 9.48117 13.542786 8.441199 12.502815L1.296996 5.358613C1.206869 5.268486 1.141199 5.156878 1.106183 5.034324L.028875 1.263745C-.045859 1.002175 .026903 .720645 .21902 .528044 .411137 .335442 .692483 .26197 .954241 .336044L4.717738 1.401077C4.840996 1.435959 4.953266 1.501828 5.043846 1.592407L12.197727 8.746288C13.232432 9.780993 13.235439 11.457648 12.204457 12.496059ZM9.50186 11.442155C9.954556 11.894851 10.688928 11.893533 11.139997 11.439215 11.588781 10.987196 11.587471 10.257352 11.137067 9.806949L11.088675 9.758556 9.453468 11.393764 9.50186 11.442155ZM8.392808 10.333103 2.495079 4.435375 1.840936 2.145877 4.121321 2.791203 10.028015 8.697897 8.392808 10.333103Z"
          fill="#020c1c" fill-opacity=".68" fill-rule="evenodd"/>
    <g clip-path="url(#clip_0)">
        <path transform="matrix(1,0,0,-1,0,19.997788)"
              d="M4 .750002C3.467303 .750002 2.966584 .877586 2.524677 1.103201L1.842607-.232756C2.490814-.563696 3.22474-.749998 4-.749998V.750002ZM1.103199 2.524679C.877584 2.966587 .75 3.467304 .75 4.000002H-.75C-.75 3.224743-.563698 2.490816-.232758 1.842609L1.103199 2.524679ZM.75 4.000002V5.79967H-.75V4.000002H.75ZM.75 8.199228V11.798564H-.75V8.199228H.75ZM.75 14.198122V15.997791H-.75V14.198122H.75ZM.75 15.997791C.75 16.530488 .877584 17.031207 1.103199 17.473114L-.232758 18.155182C-.563698 17.506978-.75 16.77305-.75 15.997791H.75ZM2.524678 18.894589C2.966585 19.120203 3.467303 19.247788 4 19.247788V20.747788C3.224741 20.747788 2.490816 20.561486 1.84261 20.230547L2.524678 18.894589ZM4 19.247788H5.8V20.747788H4V19.247788ZM8.2 19.247788H11.8V20.747788H8.2V19.247788ZM14.2 19.247788H16V20.747788H14.2V19.247788ZM16 19.247788C16.532698 19.247788 17.033415 19.120203 17.475323 18.894589L18.157393 20.230545C17.509186 20.561486 16.775259 20.747788 16 20.747788V19.247788ZM18.896801 17.47311C19.122416 17.031203 19.25 16.530486 19.25 15.997787H20.75C20.75 16.773047 20.563698 17.506974 20.232758 18.15518L18.896801 17.47311ZM19.25 15.997787V14.198119H20.75V15.997787H19.25ZM19.25 11.798561V8.199225H20.75V11.798561H19.25ZM19.25 5.799666V3.999999H20.75V5.799666H19.25ZM19.25 3.999999C19.25 3.467302 19.122416 2.966583 18.896801 2.524675L20.232758 1.842607C20.563698 2.490812 20.75 3.224739 20.75 3.999999H19.25ZM17.475323 1.103201C17.033415 .877586 16.532698 .750002 16 .750002V-.749998C16.775259-.749998 17.509184-.563696 18.15739-.232758L17.475323 1.103201ZM16 .750002H14.2V-.749998H16V.750002ZM11.8 .750002H8.2V-.749998H11.8V.750002ZM5.8 .750002H4V-.749998H5.8V.750002ZM4 1.500002C3.588584 1.500002 3.204469 1.598228 2.865711 1.771179L1.501573-.900734C2.252929-1.284338 3.103459-1.499998 4-1.499998V1.500002ZM1.771178 2.865713C1.598226 3.204472 1.5 3.588587 1.5 4.000002H-1.5C-1.5 3.103462-1.28434 2.252932-.900737 1.501575L1.771178 2.865713ZM1.5 4.000002V5.79967H-1.5V4.000002H1.5ZM1.5 8.199228V11.798564H-1.5V8.199228H1.5ZM1.5 14.198122V15.997791H-1.5V14.198122H1.5ZM1.5 15.997791C1.5 16.409207 1.598226 16.79332 1.771178 17.132079L-.900736 18.496218C-1.284339 17.744862-1.5 16.894331-1.5 15.997791H1.5ZM2.865711 18.22661C3.204469 18.399563 3.588584 18.497788 4 18.497788V21.497788C3.10346 21.497788 2.252931 21.282128 1.501576 20.898526L2.865711 18.22661ZM4 18.497788H5.8V21.497788H4V18.497788ZM8.2 18.497788H11.8V21.497788H8.2V18.497788ZM14.2 18.497788H16V21.497788H14.2V18.497788ZM16 18.497788C16.411416 18.497788 16.79553 18.39956 17.134289 18.22661L18.498427 20.898524C17.74707 21.282128 16.896542 21.497788 16 21.497788V18.497788ZM18.228823 17.132077C18.401774 16.793318 18.5 16.409203 18.5 15.997787H21.5C21.5 16.894328 21.28434 17.744858 20.900738 18.496214L18.228823 17.132077ZM18.5 15.997787V14.198119H21.5V15.997787H18.5ZM18.5 11.798561V8.199225H21.5V11.798561H18.5ZM18.5 5.799666V3.999999H21.5V5.799666H18.5ZM18.5 3.999999C18.5 3.588583 18.401774 3.20447 18.228823 2.865711L20.900736 1.501572C21.28434 2.252928 21.5 3.103458 21.5 3.999999H18.5ZM17.134289 1.771179C16.79553 1.598227 16.411416 1.500002 16 1.500002V-1.499998C16.89654-1.499998 17.747069-1.284338 18.498425-.900736L17.134289 1.771179ZM16 1.500002H14.2V-1.499998H16V1.500002ZM11.8 1.500002H8.2V-1.499998H11.8V1.500002ZM5.8 1.500002H4V-1.499998H5.8V1.500002Z"
              fill="#020c1c" fill-opacity=".68"/>
    </g>
</svg>
