<svg width="1em" height="1em" viewBox="0 0 24 24" fill="none" xmlns="http://www.w3.org/2000/svg">
    <rect x="2.5" y="2.5" width="19" height="19" stroke="#23262A" stroke-width="1.5" stroke-linejoin="round" />
    <path fill-rule="evenodd" clip-rule="evenodd"
        d="M17.7283 6.28621C16.6904 5.24058 15.0005 5.23755 13.9588 6.27944L6.79864 13.4413C6.70854 13.5314 6.64288 13.643 6.60788 13.7655L5.52816 17.5454C5.45344 17.807 5.52622 18.0885 5.71835 18.2811C5.91047 18.4737 6.19182 18.5471 6.45358 18.473L10.2255 17.4054C10.3488 17.3705 10.461 17.3046 10.5516 17.214L17.7215 10.0425C18.7578 9.00597 18.7608 7.32644 17.7283 6.28621ZM15.0196 7.33998C15.474 6.88552 16.211 6.88685 16.6637 7.34293C17.1142 7.7968 17.1129 8.5297 16.6607 8.98195L16.6111 9.03159L14.9697 7.38986L15.0196 7.33998ZM13.9092 8.45064L7.99681 14.3644L7.34017 16.6632L9.62898 16.0153L15.5506 10.0924L13.9092 8.45064Z"
        fill="#23262A" />
</svg>